HIERARCHY
ROOT RootJoint
{
    OFFSET   0.000000   0.000000   0.000000
    CHANNELS 6 Xposition Yposition Zposition Xrotation Yrotation Zrotation
    JOINT pelvis_lowerback
    {
        OFFSET   0.000000   0.093605   0.000000
        CHANNELS 3 Xrotation Yrotation Zrotation
        JOINT lowerback_torso
        {
            OFFSET   0.000000   0.100000   0.000000
            CHANNELS 3 Xrotation Yrotation Zrotation
            JOINT torso_head
            {
                OFFSET   0.000000   0.282350   0.000000
                CHANNELS 3 Xrotation Yrotation Zrotation
                End Site
                {
                    OFFSET   0.000000   0.192650   0.000000
                }
            }
            JOINT rTorso_Clavicle
            {
                OFFSET  -0.001000   0.157500   0.000000
                CHANNELS 3 Xrotation Yrotation Zrotation
                JOINT rShoulder
                {
                    OFFSET  -0.117647   0.000000   0.000000
                    CHANNELS 3 Xrotation Yrotation Zrotation
                    JOINT rElbow
                    {
                        OFFSET  -0.245000   0.000000   0.000000
                        CHANNELS 3 Xrotation Yrotation Zrotation
                        JOINT rWrist
                        {
                            OFFSET  -0.240000   0.000000   0.000000
                            CHANNELS 3 Xrotation Yrotation Zrotation
                            End Site
                            {
                                OFFSET  -0.116353  -0.002500   0.000000
                            }
                        }
                    }
                }
            }
            JOINT lTorso_Clavicle
            {
                OFFSET   0.001000   0.157500   0.000000
                CHANNELS 3 Xrotation Yrotation Zrotation
                JOINT lShoulder
                {
                    OFFSET   0.117647   0.000000   0.000000
                    CHANNELS 3 Xrotation Yrotation Zrotation
                    JOINT lElbow
                    {
                        OFFSET   0.245000   0.000000   0.000000
                        CHANNELS 3 Xrotation Yrotation Zrotation
                        JOINT lWrist
                        {
                            OFFSET   0.240000   0.000000   0.000000
                            CHANNELS 3 Xrotation Yrotation Zrotation
                            End Site
                            {
                                OFFSET   0.116353  -0.002500   0.000000
                            }
                        }
                    }
                }
            }
        }
    }
    JOINT rHip
    {
        OFFSET  -0.100000  -0.051395   0.000000
        CHANNELS 3 Xrotation Yrotation Zrotation
        JOINT rKnee
        {
            OFFSET   0.000000  -0.410000   0.000000
            CHANNELS 3 Xrotation Yrotation Zrotation
            JOINT rAnkle
            {
                OFFSET   0.000000  -0.390000   0.000000
                CHANNELS 3 Xrotation Yrotation Zrotation
                JOINT rToeJoint
                {
                    OFFSET   0.000000  -0.050000   0.130000
                    CHANNELS 3 Xrotation Yrotation Zrotation
                    End Site
                    {
                        OFFSET  -0.010000   0.002000   0.060000
                    }
                }
            }
        }
    }
    JOINT lHip
    {
        OFFSET   0.100000  -0.051395   0.000000
        CHANNELS 3 Xrotation Yrotation Zrotation
        JOINT lKnee
        {
            OFFSET   0.000000  -0.410000   0.000000
            CHANNELS 3 Xrotation Yrotation Zrotation
            JOINT lAnkle
            {
                OFFSET   0.000000  -0.390000   0.000000
                CHANNELS 3 Xrotation Yrotation Zrotation
                JOINT lToeJoint
                {
                    OFFSET   0.000000  -0.050000   0.130000
                    CHANNELS 3 Xrotation Yrotation Zrotation
                    End Site
                    {
                        OFFSET   0.010000   0.002000   0.060000
                    }
                }
            }
        }
    }
}
MOTION
Frames: 14
Frame Time:   0.008333
 -2.376719   0.925631   3.975860   0.000000   0.000000   0.000000   0.000000   0.000000   0.000000   0.000000   0.000000   0.000000   0.000000   0.000000   0.000000   0.000000   0.000000   0.000000   0.000000   0.000000   0.000000   0.000000   0.000000   0.000000   0.000000   0.000000   0.000000   0.000000   0.000000   0.000000   0.000000   0.000000   0.000000   0.000000   0.000000   0.000000   0.000000   0.000000   0.000000   0.000000   0.000000   0.000000   0.000000   0.000000   0.000000   0.000000   0.000000   0.000000   0.000000   0.000000   0.000000   0.000000   0.000000   0.000000   0.000000   0.000000   0.000000   0.000000   0.000000   0.000000   0.000000   0.000000   0.000000
 -2.376462   0.926266   3.975964   0.118199   0.035044  -0.070943  -0.181317   0.011586   0.133143   0.086160  -0.093187   0.026527  -0.110291   0.205782   0.054874   0.239234  -0.539876   0.340306   0.760507   0.211345   2.044838   0.029156   1.341110  -0.012211   0.246124  -0.305229  -2.913413   0.235565   0.369298  -0.569477   0.829495   0.083982  -2.016011   0.025350  -1.157801   0.011165   0.222912   0.119555   2.998305  -0.414044   0.112034  -0.098291   1.020563   0.001520   0.001297  -1.078314  -0.403194  -0.157930  -0.152329  -0.000432   0.000338  -0.464298  -0.051202   0.191728   1.143569  -0.001210  -0.000140  -1.106223   0.139041   0.133580   0.356433  -0.000789   0.000385
 -2.376098   0.927335   3.976415   0.192387   0.064319  -0.152318  -0.385807   0.020876   0.294843   0.172312  -0.185808   0.073838  -0.200608   0.404288   0.124387   0.476291  -1.073264   1.407487   1.497091   0.450126   4.669536   0.067067   2.629395  -0.020257   0.536288  -0.248531  -5.123267   0.472525   0.738195  -1.902086   1.646439   0.141197  -4.652144   0.057874  -2.263429   0.018719   0.493687  -0.039046   5.249674  -0.746010   0.219531  -0.325757   2.096670   0.004176   0.002216  -2.087965  -0.782507  -0.314098  -0.349038  -0.001142   0.000679  -0.844224  -0.098587   0.499540   2.348170  -0.003363  -0.000175  -2.138861   0.270287   0.262294   0.644277  -0.001520   0.000608
 -2.375675   0.928408   3.977123   0.263189   0.084966  -0.233991  -0.620345   0.028333   0.464412   0.226081  -0.272949   0.130992  -0.285510   0.589536   0.196381   0.710993  -1.575047   2.925143   2.208257   0.713576   7.679389   0.103770   3.830243  -0.024669   0.820106  -0.128801  -6.480245   0.704778   1.084754  -3.683173   2.451494   0.164001  -7.689683   0.089083  -3.293403   0.023179   0.759992  -0.240143   6.618410  -1.024307   0.319761  -0.663197   3.129772   0.007206   0.002617  -3.030355  -1.135944  -0.466960  -0.534322  -0.001840   0.000907  -1.164398  -0.143045   0.895953   3.503692  -0.005883  -0.000107  -3.101807   0.392251   0.385504   0.904918  -0.002208   0.000739
 -2.375224   0.929177   3.978007   0.337802   0.096466  -0.314112  -0.875511   0.033905   0.635179   0.247634  -0.354731   0.193952  -0.368482   0.762290   0.266406   0.948370  -2.047072   4.700069   2.897521   1.005781  10.949565   0.134970   4.946266  -0.026614   1.087297  -0.017207  -7.190700   0.934609   1.410423  -5.706381   3.249165   0.146933 -10.993429   0.115397  -4.250953   0.025543   1.012154  -0.430793   7.331883  -1.264463   0.413904  -1.088005   4.105480   0.010158   0.002602  -3.911008  -1.464992  -0.615896  -0.709539  -0.002476   0.001051  -1.440625  -0.185638   1.362907   4.594918  -0.008408   0.000041  -4.000982   0.505410   0.503221   1.138444  -0.002790   0.000800
 -2.374762   0.929414   3.979004   0.415003   0.098369  -0.392067  -1.141962   0.037440   0.804392   0.244632  -0.431712   0.260946  -0.449167   0.923420   0.332870   1.190649  -2.492004   6.602041   3.565992   1.329003  14.393342   0.159127   5.982457  -0.026977   1.335242   0.068501  -7.458741   1.163250   1.717369  -7.837215   4.040834   0.086943 -14.472384   0.135598  -5.140645   0.026555   1.247483  -0.597964   7.604615  -1.474552   0.503146  -1.580444   5.023333   0.012782   0.002290  -4.734153  -1.771106  -0.760380  -0.874614  -0.003017   0.001132  -1.681368  -0.227108   1.884808   5.621733  -0.010720   0.000237  -4.840762   0.610291   0.615489   1.347857  -0.003245   0.000809
 -2.374339   0.928939   3.980059   0.492017   0.092463  -0.464635  -1.412047   0.039804   0.964090   0.225141  -0.503110   0.317111  -0.526918   1.073528   0.399204   1.438938  -2.912531   8.551507   4.213456   1.684256  17.956545   0.176138   6.944013  -0.026394   1.564069   0.124098  -7.430781   1.393194   2.009184 -10.035178   4.789958  -0.012584 -17.925771   0.149159  -5.967348   0.026479   1.466411  -0.741885   7.519921  -1.659734   0.588280  -2.122949   5.885586   0.014927   0.001802  -5.503629  -2.055776  -0.900082  -1.029771  -0.003444   0.001163  -1.892808  -0.268034   2.448703   6.586838  -0.012725   0.000470  -5.625043   0.707351   0.722304   1.536174  -0.003576   0.000785
 -2.373942   0.927053   3.980698   0.586244  -0.028023  -0.540761  -1.585630   0.094797   1.159897   0.195261  -0.560302   0.326594  -0.728477   1.115289   0.424804   1.683339  -3.144174   9.828504   4.960038   2.123191  21.550098   0.188372   7.989218  -0.028639   1.732642   0.059295  -6.356019   1.620861   2.309550 -11.467438   5.358091  -0.094427 -21.408183   0.161809  -6.957724   0.026545   1.626630  -0.860309   6.394373  -1.955644   0.439639  -2.606271   6.830566   0.016347  -0.001546  -6.070013  -2.380973  -0.858771  -1.033277  -0.002772   0.000947  -2.022983  -0.207108   2.959656   6.969156  -0.011626   0.000443  -6.158852   0.921823   0.888166   1.713980  -0.003774   0.000930
 -2.373571   0.923966   3.981036   0.682357  -0.148363  -0.617002  -1.703094   0.153134   1.351331   0.184125  -0.598147   0.342015  -0.922936   1.147576   0.441330   1.897039  -3.299936  10.868810   5.617379   2.613308  24.806537   0.191027   8.983922  -0.030160   1.913318   0.083124  -5.291646   1.826153   2.561975 -12.621773   5.875658  -0.215559 -24.542846   0.164577  -7.894474   0.026244   1.785645  -1.053977   5.324504  -2.252090   0.284890  -3.036160   7.716941   0.016707  -0.004124  -6.595000  -2.687967  -0.823602  -1.013007  -0.002131   0.000655  -2.201848  -0.152038   3.415776   7.239239  -0.010194   0.000382  -6.661438   1.121257   1.045447   1.877443  -0.003762   0.000999
 -2.373213   0.919789   3.981185   0.772217  -0.257153  -0.692511  -1.779663   0.218459   1.537723   0.192477  -0.620814   0.366876  -1.100614   1.176996   0.454978   2.081552  -3.408687  11.736973   6.192598   3.126393  27.768914   0.187241   9.923920  -0.030935   2.096860   0.169976  -4.409076   2.008934   2.775513 -13.576640   6.345207  -0.363404 -27.379831   0.160875  -8.775029   0.025447   1.941944  -1.278638   4.465224  -2.523880   0.140834  -3.417965   8.540937   0.016341  -0.005829  -7.085045  -2.974532  -0.793562  -0.992168  -0.001623   0.000425  -2.421312  -0.104185   3.819040   7.459979  -0.008784   0.000330  -7.132512   1.305385   1.193782   2.025592  -0.003600   0.001021
 -2.372784   0.918583   3.981734   0.749812  -0.383477  -0.209266  -1.821412   0.306384   1.277998   0.236783  -0.620247   0.213242  -1.250036   1.205101   0.452081   2.250264  -3.488189  12.759496   6.696408   3.649033  30.595779   0.181478  10.800134  -0.030483   2.276972   0.249478  -3.693630   2.180697   2.974802 -14.559526   6.774741  -0.514721 -29.993851   0.154580  -9.583438   0.023886   2.086987  -1.430331   3.850598  -2.629717   0.019591  -4.251656   9.297766   0.015044  -0.007035  -7.532656  -3.245317  -0.770489  -0.896214  -0.001008  -0.000120  -2.809451   0.081767   3.306618   8.303166  -0.006702   0.000810  -6.948469   1.563729   1.138800   2.216675  -0.002734   0.001336
 -2.372813   0.917994   3.982470   0.754465  -0.621098   0.044304  -1.904040   0.436940   1.263613   0.260770  -0.576786   0.122833  -1.391679   1.232678   0.439648   2.404473  -3.551084  13.608243   7.140570   4.167459  33.206276   0.172763  11.626783  -0.029183   2.451491   0.373442  -2.952468   2.359544   3.183535 -15.434021   7.179113  -0.662217 -32.458171   0.145643 -10.340082   0.021978   2.223372  -1.586317   3.200286  -2.767867  -0.092999  -4.692801  10.016465   0.012794  -0.008304  -7.953782  -3.495792  -0.749919  -0.832463  -0.000702  -0.000443  -3.027657   0.163902   3.039795   8.913003  -0.005339  -0.000127  -7.233185   1.713025   1.186700   1.809369  -0.002095   0.001075
 -2.373164   0.917580   3.983232   0.789271  -0.847316   0.201377  -1.996469   0.555256   1.326138   0.265228  -0.530831   0.088702  -1.530689   1.257583   0.437491   2.544075  -3.604192  14.325834   7.531359   4.670385  35.599411   0.161925  12.401868  -0.027511   2.618861   0.517583  -2.286253   2.531731   3.380733 -16.190140   7.553194  -0.810260 -34.729651   0.134859 -11.046548   0.019969   2.352361  -1.741089   2.598559  -2.918630  -0.209033  -4.940163  10.687890   0.010355  -0.008952  -8.349556  -3.728122  -0.731152  -0.792508  -0.000530  -0.000561  -3.205981   0.235615   2.892908   9.385182  -0.004361  -0.000694  -7.501476   1.865615   1.273668   1.605534  -0.001520   0.000853
 -2.373865   0.917175   3.983971   0.768730  -1.069610   0.365821  -1.990767   0.661795   1.283508   0.271458  -0.447677   0.145397  -1.666116   1.167912   0.398088   2.651851  -3.620433  14.599226   7.930985   5.220701  37.504183   0.146530  13.152567  -0.026611   2.716248   0.743959  -0.879868   2.733245   3.514525 -16.436263   7.872966  -1.057798 -36.711707   0.124944 -11.937074   0.019363   2.434807  -1.797417   1.415384  -2.872052  -0.295805  -5.106290  10.804494   0.008222  -0.007496  -8.517851  -3.781771  -0.748734  -0.580469  -0.000387  -0.001130  -3.259408   0.269743   2.755483   9.730497  -0.003631  -0.001097  -7.755417   2.055745   1.377763   1.598879  -0.001209   0.000682
